HIERARCHY
ROOT Hips
{
  OFFSET 0.000000 0.000000 0.000000
  CHANNELS 6 Xposition Yposition Zposition Xrotation Yrotation Zrotation
  JOINT Spine
  {
    OFFSET 0.762862 23.197727 -6.058858
    CHANNELS 3 Xrotation Yrotation Zrotation
    JOINT Chest
    {
      OFFSET 0.762862 23.197727 -6.058858
      CHANNELS 3 Xrotation Yrotation Zrotation
      JOINT Neck
      {
        OFFSET -0.270074 9.229822 -3.797407
        CHANNELS 3 Xrotation Yrotation Zrotation
        JOINT Head
        {
          OFFSET 0.225285 8.430608 -7.939136
          CHANNELS 3 Xrotation Yrotation Zrotation
          End Site
          {
            OFFSET 0.067585 2.529182 -2.381741
          }
        }
      }
      JOINT LeftShoulder
      {
        OFFSET 17.595006 0.044015 0.996102
        CHANNELS 3 Xrotation Yrotation Zrotation
        JOINT LeftArm
        {
          OFFSET 3.473531 -23.049457 3.982832
          CHANNELS 3 Xrotation Yrotation Zrotation
          JOINT LeftForeArm
          {
            OFFSET 3.218371 -22.980839 -10.241008
            CHANNELS 3 Xrotation Yrotation Zrotation
            JOINT LeftHand
            {
              OFFSET -0.008887 -5.924601 -2.989147
              CHANNELS 3 Xrotation Yrotation Zrotation
              End Site
              {
                OFFSET -0.002666 -1.777380 -0.896744
              }
            }
          }
        }
      }
      JOINT RightShoulder
      {
        OFFSET -17.595006 -0.044015 -0.996102
        CHANNELS 3 Xrotation Yrotation Zrotation
        JOINT RightArm
        {
          OFFSET -5.553442 -24.118242 6.751946
          CHANNELS 3 Xrotation Yrotation Zrotation
          JOINT RightForeArm
          {
            OFFSET -3.099014 -24.977112 -8.059516
            CHANNELS 3 Xrotation Yrotation Zrotation
            JOINT RightHand
            {
              OFFSET 0.298828 -5.701374 -2.573080
              CHANNELS 3 Xrotation Yrotation Zrotation
              End Site
              {
                OFFSET 0.089648 -1.710412 -0.771924
              }
            }
          }
        }
      }
    }
  }
  JOINT LeftUpLeg
  {
    OFFSET 11.990773 -0.614304 0.788698
    CHANNELS 3 Xrotation Yrotation Zrotation
    JOINT LeftLeg
    {
      OFFSET -5.144974 -41.347031 -0.530598
      CHANNELS 3 Xrotation Yrotation Zrotation
      JOINT LeftFoot
      {
        OFFSET 2.709190 -35.138144 18.775504
        CHANNELS 3 Xrotation Yrotation Zrotation
        End Site
        {
          OFFSET 0.812757 -10.541443 5.632651
        }
      }
    }
  }
  JOINT RightUpLeg
  {
    OFFSET -11.990773 0.614304 -0.788698
    CHANNELS 3 Xrotation Yrotation Zrotation
    JOINT RightLeg
    {
      OFFSET 0.284998 -37.357294 5.081156
      CHANNELS 3 Xrotation Yrotation Zrotation
      JOINT RightFoot
      {
        OFFSET 4.690763 -28.563407 28.545631
        CHANNELS 3 Xrotation Yrotation Zrotation
        End Site
        {
          OFFSET 1.407229 -8.569022 8.563689
        }
      }
    }
  }
}
MOTION
Frames: 8
Frame Time: 0.083333
0.000000 60.000000 0.000000 0.285476 0.021387 0.120223 0.285476 0.021387 0.120223 0.000000 0.000000 0.000000 1.019628 0.180996 0.228659 5.000000 0.000000 0.000000 0.231044 0.129908 0.565117 -0.461196 0.009041 -0.050243 -113.687570 14.743847 22.895425 0.000000 0.000000 0.000000 0.725345 -0.131334 0.132051 -0.370535 0.009425 -0.000790 -107.143336 -16.643754 -21.553180 0.000000 0.000000 0.000000 -1.349450 0.162669 -0.472107 -0.221172 0.211596 0.424252 0.000000 0.000000 0.000000 -0.469186 0.104785 0.754638 3.875176 -0.013458 -0.779184 0.000000 0.000000 0.000000
-0.996446 60.000000 -0.276369 0.358990 0.013591 0.100002 0.358990 0.013591 0.100002 0.000000 0.000000 0.000000 0.950964 0.159993 0.204334 5.000000 0.000000 0.000000 0.248185 0.132174 0.569899 -0.287922 0.015220 -0.052714 -113.652938 14.710788 22.857883 0.000000 0.000000 0.000000 0.742418 -0.128463 0.160802 -0.294997 0.009598 -0.007216 -107.121390 -16.611397 -21.510425 0.000000 0.000000 0.000000 -1.360228 0.160936 -0.462050 -0.128484 0.192161 0.376236 0.000000 0.000000 0.000000 -0.328080 0.118260 0.863176 3.573693 -0.010913 -0.771810 0.000000 0.000000 0.000000
-2.629133 60.000000 -0.666327 1.211854 0.017409 0.228120 1.211854 0.017409 0.228120 0.000000 0.000000 0.000000 2.499763 0.404566 0.522047 5.000000 0.000000 0.000000 0.733054 0.398497 1.751557 -0.310201 0.068347 -0.172161 -113.412178 13.895408 21.714854 0.000000 0.000000 0.000000 2.173488 -0.362645 0.530548 -0.614120 0.027378 -0.038239 -106.333832 -16.198907 -21.221640 0.000000 0.000000 0.000000 -3.838671 0.445021 -1.310598 -0.075724 0.482756 0.914161 0.000000 0.000000 0.000000 -0.370302 0.370914 2.735282 15.863097 -0.179889 -3.371569 0.000000 0.000000 0.000000
-3.449131 60.000000 -0.866614 2.135311 -0.017053 0.219008 2.135311 -0.017053 0.219008 0.000000 0.000000 0.000000 3.183041 0.500609 0.655285 5.000000 0.000000 0.000000 1.141137 0.665836 3.059717 0.873996 0.196734 -0.371870 -113.306590 12.783743 20.042402 0.000000 0.000000 0.000000 3.342956 -0.540174 0.902761 -0.382693 0.037187 -0.086908 -105.693073 -15.667390 -20.661069 0.000000 0.000000 0.000000 -5.354548 0.597900 -1.982015 0.609166 0.529064 0.913219 0.000000 0.000000 0.000000 0.436229 0.600428 4.521997 22.611921 -0.275192 -5.118827 0.000000 0.000000 0.000000
-3.837260 60.000000 -1.177071 2.507267 -0.022733 0.249676 2.507267 -0.022733 0.249676 0.000000 0.000000 0.000000 3.510999 0.622944 0.807314 5.000000 0.000000 0.000000 1.607621 0.930699 4.422376 2.581898 0.446238 -0.761653 -112.828964 11.553922 18.269659 0.000000 0.000000 0.000000 4.006820 -0.679966 0.971611 -0.105900 0.026111 -0.073411 -97.275182 -14.247568 -18.819861 0.000000 0.000000 0.000000 -5.297591 0.573409 -2.510906 1.152472 0.394118 0.584763 0.000000 0.000000 0.000000 0.915868 0.631948 4.889861 24.317427 -0.281097 -5.602551 0.000000 0.000000 0.000000
-4.167594 60.000000 -1.668055 3.473210 -0.038643 0.328100 3.473210 -0.038643 0.328100 0.000000 0.000000 0.000000 4.285942 0.773938 1.015177 5.000000 0.000000 0.000000 3.098510 1.248097 5.552331 6.148086 0.878208 -1.335769 -110.199520 10.475906 17.498965 0.000000 0.000000 0.000000 4.741390 -0.807436 1.164524 0.439653 -0.005107 -0.018574 -60.302971 -8.938457 -11.946573 0.000000 0.000000 0.000000 -5.140694 0.545470 -2.874174 1.242723 0.165636 0.138495 0.000000 0.000000 0.000000 1.411262 0.669875 5.344281 24.835844 -0.350669 -5.855201 0.000000 0.000000 0.000000
-4.495794 60.000000 -2.224066 4.592905 -0.030038 0.546515 4.592905 -0.030038 0.546515 0.000000 0.000000 0.000000 5.221383 1.069164 1.400421 5.000000 0.000000 0.000000 4.869179 1.638897 7.166615 9.801783 1.288241 -1.778500 -109.449941 10.115810 17.164926 0.000000 0.000000 0.000000 4.969891 -0.770209 1.550391 1.090210 -0.050009 0.068731 0.000000 0.000000 0.000000 0.000000 0.000000 0.000000 -4.383578 0.473649 -2.765322 0.096586 -0.044302 -0.095825 0.000000 0.000000 0.000000 1.696162 0.776947 6.317070 23.496396 -0.632356 -5.892120 0.000000 0.000000 0.000000
-4.781167 60.000000 -2.617939 4.599382 0.094154 1.111603 4.599382 0.094154 1.111603 0.000000 0.000000 0.000000 5.400903 1.430673 1.830048 5.000000 0.000000 0.000000 5.841972 1.812719 7.942827 11.800211 1.554186 -2.056352 -109.126226 10.028082 17.131977 0.000000 0.000000 0.000000 4.520959 -0.520875 2.143641 1.006199 -0.088232 0.189556 0.000000 0.000000 0.000000 0.000000 0.000000 0.000000 -3.975786 0.431992 -2.803734 -0.633732 -0.054117 -0.005610 0.000000 0.000000 0.000000 1.889843 0.855053 7.046669 23.347878 -0.607896 -5.804387 0.000000 0.000000 0.000000
